<?xml version="1.0" encoding="UTF-8" standalone="no"?>
<svg
   xmlns:dc="http://purl.org/dc/elements/1.1/"
   xmlns:cc="http://creativecommons.org/ns#"
   xmlns:rdf="http://www.w3.org/1999/02/22-rdf-syntax-ns#"
   xmlns:svg="http://www.w3.org/2000/svg"
   xmlns="http://www.w3.org/2000/svg"
   xmlns:sodipodi="http://sodipodi.sourceforge.net/DTD/sodipodi-0.dtd"
   xmlns:inkscape="http://www.inkscape.org/namespaces/inkscape"
   viewBox="0 0 551.44806 554.51081"
   height="591.47821"
   width="588.21124"
   xml:space="preserve"
   id="svg2"
   version="1.1"
   inkscape:version="0.92.1 r15371"
   sodipodi:docname="logo-mod.svg"><sodipodi:namedview
     pagecolor="#ffffff"
     bordercolor="#666666"
     borderopacity="1"
     objecttolerance="10"
     gridtolerance="10"
     guidetolerance="10"
     inkscape:pageopacity="0"
     inkscape:pageshadow="2"
     inkscape:window-width="1920"
     inkscape:window-height="1017"
     id="namedview27"
     showgrid="false"
     inkscape:zoom="1.4370775"
     inkscape:cx="294.10562"
     inkscape:cy="295.32017"
     inkscape:window-x="1016"
     inkscape:window-y="-8"
     inkscape:window-maximized="1"
     inkscape:current-layer="svg2"
     fit-margin-top="0"
     fit-margin-left="0"
     fit-margin-right="0"
     fit-margin-bottom="0" /><metadata
     id="metadata8"><rdf:RDF><cc:Work
         rdf:about=""><dc:format>image/svg+xml</dc:format><dc:type
           rdf:resource="http://purl.org/dc/dcmitype/StillImage" /><dc:title /></cc:Work></rdf:RDF></metadata><defs
     id="defs6" /><path
     id="path14"
     style="fill:#ffffff;fill-opacity:1;fill-rule:nonzero;stroke:none"
     d="m 95.965642,79.137737 c 0,0 108.444008,1.778 108.444008,1.778 0,0 -30,27.666673 -30,27.666673 0,0 59.33333,59.66666 59.33333,59.66666 0,0 3,-57 3,-57 0,0 -57.99999,-1.33333 -57.99999,-1.33333 0,0 99.88931,-100.555333 99.88931,-100.555333 0,0 74.11068,72.222 74.11068,72.222 0,0 27.66667,30.666663 27.66667,30.666663 0,0 -53.66667,0.66667 -53.66667,0.66667 0,0 1,58 1,58 0,0 57.33333,-59 57.33333,-59 0,0 -28.99999,-32.000003 -28.99999,-32.000003 0,0 103.88931,-0.778 103.88931,-0.778 0,0 1.33334,107.111333 1.33334,107.111333 0,0 -23.55599,-20.66666 -23.55599,-20.66666 0,0 -61.33333,63.77863 -61.33333,63.77863 0,0 62.66666,-2.22396 62.66666,-2.22396 0,0 1,-53.55467 1,-53.55467 0,0 103,96.22134 103,96.22134 0,0 -98.22136,95.556 -98.22136,95.556 0,0 -10e-4,-53.07161 -10e-4,-53.07161 0,0 -335.11067,2.40494 -335.11067,2.40494 0,0 -0.88867,46.66667 -0.88867,46.66667 0,0 -93.333328,-87.556 -93.333328,-87.556 0,0 96.444648,-96.88801 96.444648,-96.88801 0,0 2.22201,49.77864 2.22201,49.77864 0,0 59.11132,1.33333 59.11132,1.33333 0,0 -57.33333,-60.88997 -57.33333,-60.88997 0,0 -19.999998,19.11133 -19.999998,19.11133 0,0 -0.44465,-104.444663 -0.44465,-104.444663 0,0 0.44465,-2.66667 0.44465,-2.66667 z"
     inkscape:connector-curvature="0" /><path
     id="path16"
     style="fill:none;stroke:#00257a;stroke-width:1.33333325;stroke-linecap:butt;stroke-linejoin:miter;stroke-miterlimit:7;stroke-dasharray:none;stroke-opacity:1"
     d="m 95.965642,79.137737 c 0,0 108.444008,1.778 108.444008,1.778 0,0 -30,27.666673 -30,27.666673 0,0 59.33333,59.66666 59.33333,59.66666 0,0 3,-57 3,-57 0,0 -57.99999,-1.33333 -57.99999,-1.33333 0,0 99.88931,-100.555333 99.88931,-100.555333 0,0 74.11068,72.222 74.11068,72.222 0,0 27.66667,30.666663 27.66667,30.666663 0,0 -53.66667,0.66667 -53.66667,0.66667 0,0 1,58 1,58 0,0 57.33333,-59 57.33333,-59 0,0 -28.99999,-32.000003 -28.99999,-32.000003 0,0 103.88931,-0.778 103.88931,-0.778 0,0 1.33334,107.111333 1.33334,107.111333 0,0 -23.55599,-20.66666 -23.55599,-20.66666 0,0 -61.33333,63.77863 -61.33333,63.77863 0,0 62.66666,-2.22396 62.66666,-2.22396 0,0 1,-53.55467 1,-53.55467 0,0 103,96.22134 103,96.22134 0,0 -98.22136,95.556 -98.22136,95.556 0,0 -10e-4,-53.07161 -10e-4,-53.07161 0,0 -335.11067,2.40494 -335.11067,2.40494 0,0 -0.88867,46.66667 -0.88867,46.66667 0,0 -93.333328,-87.556 -93.333328,-87.556 0,0 96.444648,-96.88801 96.444648,-96.88801 0,0 2.22201,49.77864 2.22201,49.77864 0,0 59.11132,1.33333 59.11132,1.33333 0,0 -57.33333,-60.88997 -57.33333,-60.88997 0,0 -19.999998,19.11133 -19.999998,19.11133 0,0 -0.44465,-104.444663 -0.44465,-104.444663 0,0 0.44465,-2.66667 0.44465,-2.66667 z"
     inkscape:connector-curvature="0" /><path
     id="path18"
     style="fill:none;stroke:#00456e;stroke-width:12;stroke-linecap:butt;stroke-linejoin:miter;stroke-miterlimit:7;stroke-dasharray:none;stroke-opacity:1"
     d="m 437.3211,168.95545 c 0,0 105.53256,103.33398 105.53256,103.33398 0,0 -99.55469,96.66666 -99.55469,96.66666 0,0 0,0 0,0 0,0 0.22136,-55.33462 0.22136,-55.33462 0,0 0,0 0,0 0,0 -334.22136,0.88932 -334.22136,0.88932 0,0 0,54 0,54 0,0 -94.882148,-96.22201 -94.882148,-96.22201 0,0 0,0 0,0 0,0 100.361328,-101.03711 100.361328,-101.03711"
     inkscape:connector-curvature="0" /><path
     id="path20"
     style="fill:none;stroke:#00456e;stroke-width:12;stroke-linecap:butt;stroke-linejoin:miter;stroke-miterlimit:7;stroke-dasharray:none;stroke-opacity:1"
     d="m 439.74298,163.17746 c 0,0 -62.80079,66.88932 -62.80079,66.88932 0,0 0,0 0,0 0,0 60.03386,0.11066 60.03386,0.11066 0,0 0,0 0,0 0,0 0.34505,-61.22201 0.34505,-61.22201"
     inkscape:connector-curvature="0" /><path
     id="path22"
     style="fill:none;stroke:#00456e;stroke-width:12;stroke-linecap:butt;stroke-linejoin:miter;stroke-miterlimit:7;stroke-dasharray:none;stroke-opacity:1"
     d="m 203.96499,82.510137 c 0,0 74.00065,-73.999343 74.00065,-73.999343 0,0 104.22265,105.481776 104.22265,105.481776"
     inkscape:connector-curvature="0" /><path
     id="path24"
     style="fill:none;stroke:#00456e;stroke-width:12;stroke-linecap:butt;stroke-linejoin:miter;stroke-miterlimit:7;stroke-dasharray:none;stroke-opacity:1"
     d="m 386.74298,110.51079 c 0,0 -61.33333,60.36068 -61.33333,60.36068 0,0 0,0 0,0 0,0 -0.11067,-58.02734 -0.11067,-58.02734"
     inkscape:connector-curvature="0" /><path
     id="path26"
     style="fill:none;stroke:#00456e;stroke-width:12;stroke-linecap:butt;stroke-linejoin:miter;stroke-miterlimit:7;stroke-dasharray:none;stroke-opacity:1"
     d="m 204.40965,82.066127 c 0,0 -33.4707,31.861333 -33.4707,31.861333"
     inkscape:connector-curvature="0" /><path
     id="path28"
     style="fill:none;stroke:#00456e;stroke-width:12;stroke-linecap:butt;stroke-linejoin:miter;stroke-miterlimit:7;stroke-dasharray:none;stroke-opacity:1"
     d="m 170.74299,105.84413 c 0,0 62.91666,64.75 62.91666,64.75 0,0 -0.36068,-56.63932 -0.36068,-56.63932"
     inkscape:connector-curvature="0" /><path
     id="path30"
     style="fill:none;stroke:#00456e;stroke-width:12;stroke-linecap:butt;stroke-linejoin:miter;stroke-miterlimit:7;stroke-dasharray:none;stroke-opacity:1"
     d="m 319.24298,113.67746 c 0,0 62.94531,0.31511 62.94531,0.31511"
     inkscape:connector-curvature="0" /><path
     id="path32"
     style="fill:none;stroke:#00456e;stroke-width:12;stroke-linecap:butt;stroke-linejoin:miter;stroke-miterlimit:7;stroke-dasharray:none;stroke-opacity:1"
     d="m 92.854962,192.73345 c 0,0 -0.44465,-111.889323 -0.44465,-111.889323 0,0 0,0 0,0 0,0 111.999338,-0.11067 111.999338,-0.11067"
     inkscape:connector-curvature="0" /><path
     id="path34"
     style="fill:none;stroke:#00456e;stroke-width:12;stroke-linecap:butt;stroke-linejoin:miter;stroke-miterlimit:7;stroke-dasharray:none;stroke-opacity:1"
     d="m 349.74298,80.956097 c 0,0 110.44661,0 110.44661,0 0,0 0,110.666013 0,110.666013"
     inkscape:connector-curvature="0" /><path
     id="path36"
     style="fill:none;stroke:#00456e;stroke-width:12;stroke-linecap:butt;stroke-linejoin:miter;stroke-miterlimit:7;stroke-dasharray:none;stroke-opacity:1"
     d="m 113.73583,171.39946 c 0,0 -0.37566,59.00846 -0.37566,59.00846 0,0 0,0 0,0 0,0 60.77214,-0.0637 60.77214,-0.0637 0,0 -63.05599,-63.83333 -63.05599,-63.83333"
     inkscape:connector-curvature="0" /><path
     id="path38"
     style="fill:#00456e;fill-opacity:1;fill-rule:nonzero;stroke:none"
     d="m 422.35495,420.90011 c 0,0 61.61068,-62.05599 61.61068,-62.05599 0,0 0.88932,191.55468 0.88932,191.55468 0,0 0,0 0,0 0,0 -413.555968,0.11198 -413.555968,0.11198 0,0 0,0 0,0 0,0 0,-190.66666 0,-190.66666 0,0 0,-0.66667 0,-0.66667 0,0 60.222648,60.66667 60.222648,60.66667 0,0 0.44401,0 0.44401,0 0,0 0.33333,-78.66667 0.33333,-78.66667 0,0 0,0 0,0 0,0 290.05598,-0.90756 290.05598,-0.90756 0,0 0,0 0,0"
     inkscape:connector-curvature="0" /><path
     style="fill:none;stroke:#00456e;stroke-width:8;stroke-linecap:butt;stroke-linejoin:miter;stroke-miterlimit:7;stroke-dasharray:none;stroke-opacity:1"
     d="m 423.52148,336.28906 0.16602,81.27735 z m -1.16601,3.98047 -290.05664,0.9082 -0.33399,78.66602 h -0.44336 L 71.298828,359.17773 v 0.66602 190.66797 l 413.556642,-0.11328 -0.89063,-191.55469 -61.60937,62.05664 z"
     id="path40"
     inkscape:connector-curvature="0" /><path
     id="path44"
     style="fill:none;stroke:#00456e;stroke-width:12;stroke-linecap:butt;stroke-linejoin:miter;stroke-miterlimit:7;stroke-dasharray:none;stroke-opacity:1"
     d="m 175.86799,113.71913 c 0,0 63.37499,0.0696 63.37499,0.0696"
     inkscape:connector-curvature="0" /><g
     aria-label="AIF"
     transform="scale(0.86141748,1.1608773)"
     style="font-variant:normal;font-weight:normal;font-size:149.53688049px;line-height:0%;font-family:'Century Schoolbook L';-inkscape-font-specification:CenturySchoolbook;writing-mode:lr-tb;fill:none;fill-opacity:1;fill-rule:nonzero;stroke:#ffffff;stroke-width:1.14855659;stroke-linecap:butt;stroke-linejoin:miter;stroke-miterlimit:7;stroke-dasharray:none;stroke-opacity:1"
     id="text52"><path
       d="m 217.91311,349.27631 h -6.28055 l -34.39348,87.18 c -2.99074,7.77591 -3.58889,8.82267 -5.83194,11.21526 -2.39259,2.8412 -6.57962,4.63565 -10.61712,4.63565 h -0.59815 v 7.02823 h 39.62728 v -7.02823 h -2.99074 c -8.07499,0 -12.11249,-2.8412 -12.11249,-8.52361 0,-1.79444 0.44861,-3.88796 1.34583,-6.28055 l 4.93472,-13.15924 h 39.62727 l 8.075,20.03794 c 0.89722,2.24305 1.19629,3.28981 1.19629,4.0375 0,2.39259 -3.73842,3.88796 -9.27129,3.88796 h -6.28054 v 7.02823 h 46.35643 v -7.02823 h -2.09352 c -7.47684,0 -9.12175,-1.1963 -12.5611,-9.57036 z m -7.32731,24.52404 16.89767,42.46848 h -33.49626 z"
       style="fill:#ffffff;stroke-width:1.14855659"
       id="path831" /><path
       d="m 338.14079,369.76286 v -4.33657 c 0,-6.28055 1.34583,-7.02824 13.30878,-7.02824 h 2.99074 v -7.02823 H 304.9436 v 7.02823 h 2.99074 c 12.11249,0 13.45832,0.74769 13.45832,7.02824 v 4.33657 71.17955 4.33657 c 0,6.28055 -1.34583,7.02824 -13.45832,7.02824 h -2.99074 v 7.02823 h 49.49671 v -7.02823 h -2.99074 c -11.96295,0 -13.30878,-0.74769 -13.30878,-7.02824 v -4.33657 z"
       style="fill:#ffffff;stroke-width:1.14855659"
       id="path833" /><path
       d="m 483.3411,351.36982 h -88.97444 v 7.02823 h 2.69166 c 12.11249,0 13.45832,0.74769 13.45832,7.02824 v 4.33657 71.17955 4.33657 c 0,6.28055 -1.34583,7.02824 -13.45832,7.02824 h -2.69166 v 7.02823 h 51.29115 v -7.02823 h -4.93472 c -12.11248,0 -13.45832,-0.74769 -13.45832,-7.02824 v -4.33657 -33.94487 h 2.99074 c 9.27129,0 12.86017,0.89722 16.00045,4.0375 3.73842,3.88796 5.23379,8.67314 5.53286,17.49581 h 7.02824 v -49.04809 h -7.02824 c -0.74768,14.65461 -6.72916,20.48655 -20.93516,20.48655 h -3.58889 V 365.8749 c 0,-6.43009 1.34584,-7.47685 9.42083,-7.47685 h 6.87869 c 24.67359,0 31.10367,5.68241 35.29071,31.25321 h 6.57962 z"
       style="fill:#ffffff;stroke-width:1.14855659"
       id="path835" /></g></svg>